# xmcd CD database file
#
# Track frame offsets:
#	150
#	21062
#	38595
#	56115
#	77255
#	92827
#	116060
#	139112
#	144317
#	162125
#	186077
#	204950
#
# Disc length: 3005 seconds
#
# Revision: 1
# Processed by: cddbd v1.5PL3 Copyright (c) Steve Scherf et al.
# Submitted via: CDex 1.51
#
DISCID=940bbb0c
DTITLE=Tony Coleman - Out in the Open
DYEAR=1996
DGENRE=Blues
TTITLE0=This is the Life
TTITLE1=Why You Wanna Do Me Like That
TTITLE2=Out in the Open
TTITLE3=Talkin' 'bout the Blues
TTITLE4=Playin' on Me
TTITLE5=Let's Get It On
TTITLE6=I Forgot to Remember  (to Forget about You)
TTITLE7=Changes  (funk interlude)
TTITLE8=Kindness for Weakness
TTITLE9=Lost in Love
TTITLE10=That Same Thang
TTITLE11=Spanish Fly
EXTD=\nTony Coleman played drums for B. B. King, Johnnie Taylor, Bobby "Blue" Bland and many more. YEAR: 1996
EXTT0=
EXTT1=
EXTT2=
EXTT3=
EXTT4=
EXTT5=
EXTT6=
EXTT7=
EXTT8=
EXTT9=
EXTT10=
EXTT11=
PLAYORDER=
